<svg height="512" viewBox="0 0 512 512" width="512" xmlns="http://www.w3.org/2000/svg"><g id="Fill_out_line" data-name="Fill out line"><path d="m416 224-40-8-80 24-24 16-22.59851 8.47437a96.00009 96.00009 0 0 0 -56.51227 57.08032l-16.88922 46.44531v120h272l33.51-113.09009a128.04857 128.04857 0 0 0 -65.51-150.90991z" fill="#ff6f35"/><path d="m256 80-40 72h32v64h48v24l24 24 56-48v-32l16-88z" fill="#ffc7cc"/><path d="m312 88v48l24-24 24 16-24 32 40 24 16-88z" fill="#808080"/><path d="m296 240-24 16 16 32 32-24z" fill="#ff8856"/><path d="m320 264 16 24 80-64-40-8z" fill="#ff8856"/><path d="m24 304h128v144h-128z" fill="#fc7"/><path d="m152 304h96v144h-96z" fill="#fcb73f"/><path d="m72 304h32v32h-32z" fill="#fcb73f"/><path d="m56 368h64v48h-64z" fill="#f2e368"/><path d="m96 448h-55.11385a16.88614 16.88614 0 0 0 -16.88615 16.88615 16.88615 16.88615 0 0 0 15.02138 16.78285l56.97862 6.331h112v-40z" fill="#fe99a0"/><path d="m232 448v40h-64l-56.98-6.33008a16.88671 16.88671 0 0 1 1.87-33.66992h54.7a20.04245 20.04245 0 0 0 19.67-23.9l-.12-.59a13.01344 13.01344 0 0 1 12.76-15.51h.49a13.2791 13.2791 0 0 1 11.38 6.42993z" fill="#ffc7cc"/><path d="m351.00846 36.00178-43.86938-9.23566a54.25657 54.25657 0 0 0 -63.814 39.9336l-3.32508 13.30028 152 24v-.00006a54.25656 54.25656 0 0 0 -40.99154-67.99816z" fill="#ff6f35"/><path d="m280 112h-8a8 8 0 0 0 0 16h8a8 8 0 0 0 0-16z"/><path d="m419.72827 216.92218-.0166-.00854c-.045-.02259-.089-.04639-.134-.06891l-.00421.00836a7.97926 7.97926 0 0 0 -2.00458-.69782l-33.56888-6.71374v-24.74036l13.16925-74.62683a7.94535 7.94535 0 0 0 2.52313-3.87659 62.257 62.257 0 0 0 -47.03613-78.02441l-43.86914-9.23584a62.05429 62.05429 0 0 0 -73.22311 45.82178l-1.60589 6.42346-56.96592-7.12074-1.98438 15.876 63.87268 7.98407 3.279.51776-33.15264 59.67493a7.99986 7.99986 0 0 0 6.99315 11.88524h24v56a7.99977 7.99977 0 0 0 8 8h40v11.71875l-19.67017 13.1134-21.73754 8.15174a104.558 104.558 0 0 0 -49.55652 39.01611h-173.03577a7.99977 7.99977 0 0 0 -8 8v144a7.96986 7.96986 0 0 0 2.57867 5.87109 24.87147 24.87147 0 0 0 19.55951 35.749l56.97852 6.33105a7.96483 7.96483 0 0 0 .8833.04886h352a8.00022 8.00022 0 0 0 7.67041-5.72705l33.5083-113.09131a135.87922 135.87922 0 0 0 -69.45044-160.25946zm-51.843-90.27277a7.99876 7.99876 0 0 0 -3.44776-5.30566l-24-16a7.99827 7.99827 0 0 0 -10.09423.99951l-10.34328 10.34274v-15.95559l60.87457 9.61175-10.7315 60.81409-22.4209-13.45264 18.67773-24.90381a7.9996 7.9996 0 0 0 1.48535-6.15039zm10.36426 97.959 19.34717 3.86914-59.78027 47.82471-7.228-10.84131zm-127.1631-155.96827a46.10738 46.10738 0 0 1 54.40478-34.04541l43.86914 9.23584a46.2873 46.2873 0 0 1 36.37549 51.08105l-135.855-21.45068zm4.91357 139.35986v-56a7.99977 7.99977 0 0 0 -8-8h-18.40381l29.3905-52.90326 45.01331 7.10736v37.7959a7.99981 7.99981 0 0 0 13.65674 5.65674l19.36279-19.36231 11.50635 7.6709-18.92578 25.23487a7.99972 7.99972 0 0 0 2.28418 11.65966l36.11572 21.66944v23.79089l-47.58191 40.78442-16.41809-16.41809v-17.373l21.65674-21.65674-11.31348-11.31348-21.65674 21.6567zm38.98047 42.29443 12.84033 12.83985-16.95215 12.71435-8.55465-17.10986zm-54.98047 187.32788-4.24072 1.116-17.13428-28.437a21.40073 21.40073 0 0 0 -18.2334-10.30131h-.48681a21.00518 21.00518 0 0 0 -20.61079 25.05566l.11523.58448a12.04 12.04 0 0 1 -11.8145 14.35986h-7.59473v-128h80zm-144-125.62231v16h-16v-16zm-64 0h32v24a7.99977 7.99977 0 0 0 8 8h32a7.99977 7.99977 0 0 0 8-8v-24h32v128h-112zm0 152.88623a8.89627 8.89627 0 0 1 8.88623-8.88623h48.76a24.85951 24.85951 0 0 0 3.16608 23.59656l-52.90753-5.87879a8.87664 8.87664 0 0 1 -7.90478-8.83154zm79.90479 8.83154a8.88606 8.88606 0 0 1 .98144-17.71777h54.7085a28.04052 28.04052 0 0 0 27.51416-33.44629l-.11524-.58447a5.00532 5.00532 0 0 1 4.91114-5.96924h.48681a5.31574 5.31574 0 0 1 4.5293 2.55908l19.0791 31.66455v29.77637h-55.55713zm361.9331-101.08154-31.81152 107.36377h-202.02637v-25.83313l146.03613-38.43054a8 8 0 0 0 5.7251-5.7959l24-96-15.52246-3.88086-22.852 91.4082-121.38677 31.94397v-129.41174a7.99977 7.99977 0 0 0 -8-8h-30.7193a88.44031 88.44031 0 0 1 34.92975-24.03467l15.85522-5.9458 12.77906 25.55811a7.99946 7.99946 0 0 0 11.95507 2.82226l16.92493-12.6936-5.66273 45.30151 15.876 1.98438 5.333-42.66382 4.07275 6.10913a7.99992 7.99992 0 0 0 11.65381 1.80957l75.90961-60.72766a119.89027 119.89027 0 0 1 56.93072 139.11682z"/><path d="m56 424h64a7.99977 7.99977 0 0 0 8-8v-48a7.99977 7.99977 0 0 0 -8-8h-64a7.99977 7.99977 0 0 0 -8 8v48a7.99977 7.99977 0 0 0 8 8zm8-48h48v32h-48z"/></g></svg>