<svg id="Layer_1_1_" enable-background="new 0 0 64 64" height="512" viewBox="0 0 64 64" width="512" xmlns="http://www.w3.org/2000/svg"><path d="m54 53h-43v4c0 1.1-.45 2.1-1.17 2.83-.73.72-1.73 1.17-2.83 1.17-2.21 0-4-1.79-4-4v-54h51z" fill="#ffe5ca"/><path d="m54 6.256c-1.838-.803-3.865-1.256-6-1.256-8.284 0-15 6.716-15 15s6.716 15 15 15c2.135 0 4.162-.453 6-1.256z" fill="#fac7a4"/><path d="m61 20c0 3.7-1.55 7.04-4.03 9.4-2.33 2.23-5.49 3.6-8.97 3.6s-6.64-1.37-8.97-3.6c-2.48-2.36-4.03-5.7-4.03-9.4 0-7.18 5.82-13 13-13s13 5.82 13 13z" fill="#4e9bb9"/><path d="m53 18v1c0 1.38-.56 2.63-1.46 3.54-.91.9-2.16 1.46-3.54 1.46-2.76 0-5-2.24-5-5v-1z" fill="#ffe5ca"/><path d="m46 15 2-4 2 4 3-2v5h-10v-5z" fill="#ffd086"/><path d="m56.97 29.4c-2.33 2.23-5.49 3.6-8.97 3.6s-6.64-1.37-8.97-3.6c.3-3.03 2.86-5.4 5.97-5.4h6c3.11 0 5.67 2.37 5.97 5.4z" fill="#91cbd7"/><path d="m51 24-3 5-3-5h3z" fill="#ed6571"/><path d="m61 53v4c0 2.21-1.79 4-4 4h-50c1.1 0 2.1-.45 2.83-1.17.72-.73 1.17-1.73 1.17-2.83v-4z" fill="#fac7a4"/><g fill="#68607c"><path d="m9 8h9v2h-9z"/><path d="m24 8h9v2h-9z"/><path d="m9 12h9v2h-9z"/><path d="m24 12h9v2h-9z"/><path d="m9 16h9v2h-9z"/><path d="m24 16h9v2h-9z"/><path d="m9 20h9v2h-9z"/><path d="m24 20h9v2h-9z"/><path d="m9 24h9v2h-9z"/><path d="m24 24h9v2h-9z"/><path d="m9 28h9v2h-9z"/><path d="m24 28h9v2h-9z"/><path d="m9 32h9v2h-9z"/><path d="m24 32h9v2h-9z"/><path d="m9 36h9v2h-9z"/><path d="m39 36h9v2h-9z"/><path d="m9 40h9v2h-9z"/><path d="m24 40h9v2h-9z"/><path d="m39 40h9v2h-9z"/><path d="m9 44h9v2h-9z"/><path d="m24 44h9v2h-9z"/><path d="m39 44h9v2h-9z"/><path d="m9 48h9v2h-9z"/><path d="m24 48h9v2h-9z"/><path d="m39 48h9v2h-9z"/><path d="m33.373 38h-9.373v-2h8.627l7.149-6.186 1.308 1.512z"/></g></svg>