<?xml version="1.0" encoding="iso-8859-1"?>
<!-- Generator: Adobe Illustrator 18.1.1, SVG Export Plug-In . SVG Version: 6.00 Build 0)  -->
<svg version="1.1" id="Capa_1" xmlns="http://www.w3.org/2000/svg" xmlns:xlink="http://www.w3.org/1999/xlink" x="0px" y="0px"
	 viewBox="0 0 21.407 21.407" style="enable-background:new 0 0 21.407 21.407;" xml:space="preserve">
<g>
	<path d="M17.132,3.858l0.247-0.122c0.062-0.031,0.185-0.061,0.306-0.061h0.06l1.165,0.151l0.49,0.061l0.491,0.031V0.307L16.399,0
		c-0.123,0-0.306,0-0.553,0l-0.398,0.093c-0.458,0.06-0.885,0.213-1.224,0.397L13.49,1.071h0.033c-0.431,0.398-0.8,0.858-0.984,1.44
		c-0.06,0.123-0.122,0.276-0.152,0.43c-0.029,0.152-0.029,0.273-0.062,0.427c0,0.153,0,0.307,0,0.458c0,0.153,0,0.247,0,0.4
		c0,2.051-0.06,3.062-0.093,3.062h-0.98L8.1,7.258c0-0.031-0.033-0.767-0.033-2.266c0-0.338,0.092-0.613,0.247-0.857
		C8.406,4.042,8.498,3.919,8.62,3.858l0.243-0.122C8.926,3.705,9.047,3.675,9.17,3.675h0.062l1.165,0.151l0.49,0.061l0.49,0.031
		V0.307L7.887,0C7.762,0,7.58,0,7.334,0L6.936,0.093C6.475,0.153,6.047,0.306,5.712,0.49L4.977,1.072h0.03
		c-0.43,0.398-0.796,0.858-0.98,1.44c-0.062,0.123-0.123,0.276-0.152,0.43C3.842,3.093,3.842,3.215,3.813,3.369
		c0,0.153,0,0.307,0,0.458c0,0.153,0,0.247,0,0.4c0,2.051-0.063,3.062-0.092,3.062H1.516v3.551v0.031h2.297v10.535h4.254V10.963
		l2.728-0.091h1.531v10.535h4.257V10.963l3.186-0.091V7.29l-3.156-0.031c0-0.031-0.03-0.767-0.03-2.266
		c0-0.338,0.093-0.613,0.244-0.857C16.919,4.042,17.012,3.919,17.132,3.858z"/>
	<g>
	</g>
	<g>
	</g>
	<g>
	</g>
	<g>
	</g>
	<g>
	</g>
	<g>
	</g>
	<g>
	</g>
	<g>
	</g>
	<g>
	</g>
	<g>
	</g>
	<g>
	</g>
	<g>
	</g>
	<g>
	</g>
	<g>
	</g>
	<g>
	</g>
</g>
<g>
</g>
<g>
</g>
<g>
</g>
<g>
</g>
<g>
</g>
<g>
</g>
<g>
</g>
<g>
</g>
<g>
</g>
<g>
</g>
<g>
</g>
<g>
</g>
<g>
</g>
<g>
</g>
<g>
</g>
</svg>
